<svg width="220" height="72" viewBox="0 0 220 72" fill="none" xmlns="http://www.w3.org/2000/svg">
  <rect x="1" y="1" width="218" height="70" rx="12" fill="#FFFFFF" stroke="#D7E6FF"/>
  <rect x="18" y="18" width="36" height="36" rx="10" fill="#EAF7F5"/>
  <path d="M26 47V25H36C40 25 43 27 43 31C43 33 42 35 40 36C42 37 44 39 44 42C44 46 41 47 37 47H26ZM31 34H35C36 34 37 33 37 32C37 31 36 30 35 30H31V34ZM31 42H36C37 42 38 41 38 40C38 39 37 38 36 38H31V42Z" fill="#0F766E"/>
  <text x="64" y="32" fill="#1E293B" font-family="Arial, Helvetica, sans-serif" font-size="12" font-weight="700">BUMI</text>
  <text x="64" y="47" fill="#64748B" font-family="Arial, Helvetica, sans-serif" font-size="11" font-weight="600">LOGISTIC</text>
</svg>
